<?xml version="1.0" encoding="UTF-8" standalone="no"?>
<!-- Created with Inkscape (http://www.inkscape.org/) -->

<svg
   width="208.08104mm"
   height="208.08102mm"
   viewBox="0 0 208.08104 208.08102"
   version="1.1"
   id="svg5"
   xml:space="preserve"
   sodipodi:docname="baraban.svg"
   inkscape:version="1.2.2 (b0a8486541, 2022-12-01)"
   xmlns:inkscape="http://www.inkscape.org/namespaces/inkscape"
   xmlns:sodipodi="http://sodipodi.sourceforge.net/DTD/sodipodi-0.dtd"
   xmlns="http://www.w3.org/2000/svg"
   xmlns:svg="http://www.w3.org/2000/svg"><sodipodi:namedview
     id="namedview2146"
     pagecolor="#ffffff"
     bordercolor="#000000"
     borderopacity="0.25"
     inkscape:showpageshadow="2"
     inkscape:pageopacity="0.0"
     inkscape:pagecheckerboard="0"
     inkscape:deskcolor="#d1d1d1"
     inkscape:document-units="mm"
     showgrid="false"
     inkscape:zoom="0.35355339"
     inkscape:cx="-195.16147"
     inkscape:cy="427.0925"
     inkscape:window-width="1680"
     inkscape:window-height="978"
     inkscape:window-x="0"
     inkscape:window-y="40"
     inkscape:window-maximized="1"
     inkscape:current-layer="layer1" /><defs
     id="defs2"><rect
       x="274.01843"
       y="441.58701"
       width="69.524773"
       height="198.10739"
       id="rect314" /><rect
       x="54.916092"
       y="898.13672"
       width="8.5085249"
       height="16.092499"
       id="rect304" /><rect
       x="54.916092"
       y="898.13672"
       width="18.418459"
       height="16.647278"
       id="rect494" /><rect
       x="54.916092"
       y="898.13672"
       width="18.418459"
       height="16.647278"
       id="rect500" /><rect
       x="54.916092"
       y="898.13672"
       width="18.418459"
       height="16.647278"
       id="rect506" /><rect
       x="54.916092"
       y="898.13672"
       width="18.418459"
       height="16.647278"
       id="rect512" /><rect
       x="54.916092"
       y="898.13672"
       width="18.418459"
       height="16.647278"
       id="rect518" /><rect
       x="54.916092"
       y="898.13672"
       width="18.418459"
       height="16.647278"
       id="rect524" /><rect
       x="54.916092"
       y="898.13672"
       width="18.418459"
       height="16.647278"
       id="rect530" /><rect
       x="54.916092"
       y="898.13672"
       width="9.9544497"
       height="15.581346"
       id="rect536" /><rect
       x="54.916092"
       y="898.13672"
       width="18.418459"
       height="16.647278"
       id="rect542" /><rect
       x="54.916092"
       y="898.13672"
       width="18.418459"
       height="16.647278"
       id="rect548" /><rect
       x="54.916092"
       y="898.13672"
       width="18.418459"
       height="16.647278"
       id="rect554" /><rect
       x="54.916092"
       y="898.13672"
       width="18.418459"
       height="16.647278"
       id="rect2155" /><rect
       x="54.916092"
       y="898.13672"
       width="18.418459"
       height="16.647278"
       id="rect2161" /><rect
       x="54.916092"
       y="898.13672"
       width="18.418459"
       height="16.647278"
       id="rect2167" /><rect
       x="54.916092"
       y="898.13672"
       width="18.418459"
       height="16.647278"
       id="rect2173" /></defs><g
     id="layer1"
     transform="rotate(78,117.25313,112.43475)"><g
       id="g2600"
       transform="matrix(-0.74041499,-0.30668993,0.30668993,-0.74041499,116.97652,182.19231)"
       style="fill:#ffffff"
       inkscape:label="Бараьбан"><circle
         id="shape0-6"
         r="124.96799"
         cx="113.84066"
         cy="151.92563"
         fill="#eeeeee"
         fill-rule="evenodd"
         stroke="#000000"
         stroke-width="2.92608"
         stroke-linecap="square"
         stroke-linejoin="bevel"
         transform="matrix(1.0268074,0,0,1.0268074,-76.607129,-93.568655)"
         style="display:inline;fill:#ffffff"
         inkscape:label="Круг" /><g
         id="g13735"
         inkscape:label="Сектора"
         transform="matrix(1.2477861,0,0,1.2477861,-92.348424,-91.813294)"><path
           style="fill:#b7c4c8;fill-opacity:1;stroke:#000000;stroke-width:1.25949"
           d="M 397.38949,196.46966 396.67444,9.2674479 411.81766,9.9542833 C 500.52469,13.977676 583.83976,48.80119 652.85085,109.01205 l 10.22159,8.91814 -133.67659,133.28758 -132.00636,132.00636 z"
           id="path12807"
           transform="matrix(0.05500997,-0.25880155,0.25880155,0.05500997,-17.102947,203.74912)"
           sodipodi:nodetypes="ccsscccc"
           inkscape:label="Заливка1" /><path
           style="fill:#b7c4c8;fill-opacity:1;stroke:#000000;stroke-width:1.25949"
           d="M 367.39783,775.54515 C 282.44535,770.04321 198.45521,734.04986 134.9418,675.92784 l -9.70559,-8.88173 131.91113,-131.91114 131.91114,-131.91114 v 187.03001 c 0,102.8665 -0.56235,186.91802 -1.24966,186.78116 -0.68731,-0.13696 -9.87225,-0.80731 -20.41099,-1.48985 z"
           id="path12809"
           transform="matrix(0.05500997,-0.25880155,0.25880155,0.05500997,-17.102947,203.74912)"
           inkscape:label="Заливка2" /><path
           style="fill:#b7c4c8;fill-opacity:1;stroke:#000000;stroke-width:1.25949"
           d="M 534.85127,529.01955 403.22911,397.38949 h 186.4337 l 187.31403,-0.28166 -0.79584,21.59691 c -3.00224,81.47239 -39.3411,167.27985 -97.622,233.14037 -4.65642,5.262 -11.24359,8.80451 -11.54235,8.80451 -0.29879,0 -59.7732,-59.23353 -132.16538,-131.63007 z"
           id="path12811"
           transform="matrix(0.05500997,-0.25880155,0.25880155,0.05500997,-17.102947,203.74912)"
           sodipodi:nodetypes="scccssss"
           inkscape:label="Заливка3" /><path
           style="fill:#b7c4c8;fill-opacity:1;stroke:#000000;stroke-width:1.78119"
           d="m 10.610291,377.60787 c 0.03341,-50.41299 21.648602,-124.60507 50.975049,-174.96702 12.685424,-21.78452 39.24617,-57.80776 50.77623,-68.86571 l 7.93167,-7.60689 130.71118,130.72709 130.71116,130.72709 H 196.15962 10.603653 l 0.0066,-10.01456 z"
           id="path12986"
           transform="matrix(0.05500997,-0.25880155,0.25880155,0.05500997,-17.102948,203.74912)"
           inkscape:label="Заливка4" /><g
           id="g752"
           inkscape:label="линии"
           style="fill:#ffffff"><path
             style="fill:#000000;stroke:#000000;stroke-width:1.76738"
             d="M 85.031902,223.64847 127.55864,23.57828"
             id="path495"
             inkscape:label="Линия1" /><path
             style="fill:#000000;stroke:#000000;stroke-width:1.76738"
             d="M 206.33037,144.87674 6.2601735,102.35"
             id="path495-3"
             inkscape:label="Линия2" /><path
             style="fill:#000000;stroke:#000000;stroke-width:1.76738"
             d="M 161.99529,209.38434 50.595247,37.8424"
             id="path495-3-7"
             inkscape:label="Линия3" /><path
             style="fill:#000000;stroke:#000000;stroke-width:1.76738"
             d="M 192.06623,67.913351 20.524302,179.31339"
             id="path495-3-6"
             inkscape:label="Линия4" /></g></g></g><g
       style="color:#000000;fill:none;stroke-width:1.5"
       id="g14365"
       transform="matrix(-0.86642767,0.73999917,-0.73999917,-0.86642767,198.5114,142.09181)"
       inkscape:label="Поздравить по телефону"><path
         d="M 18.1182,14.702 14,15.5 C 11.2183,14.1038 9.5,12.5 8.5,10 L 9.26995,5.8699 7.81452,2 H 4.0636 C 2.93605,2 2.04814,2.93178 2.21654,4.04668 2.63695,6.83 3.87653,11.8765 7.5,15.5 c 3.8052,3.8052 9.2857,5.4564 12.302,6.1127 C 20.9668,21.8662 22,20.9575 22,19.7655 v -3.5843 z"
         stroke="#000000"
         stroke-width="1.5"
         stroke-linecap="round"
         stroke-linejoin="round"
         id="path14356" /></g><g
       style="color:#000000;fill:none;stroke-width:1.5"
       id="g14397"
       transform="matrix(-1.1835621,0.56453018,-0.56453018,-1.1835621,168.27961,193.98046)"
       inkscape:label="Тост"><path
         d="m 8,22 h 4 m 4,0 h -4 m 0,0 v -7"
         stroke="#000000"
         stroke-width="1.5"
         stroke-linecap="round"
         stroke-linejoin="round"
         id="path14382" /><path
         d="M 6.57808,10.0476 C 7.78286,12.6823 12,15 12,15 c 0,0 4.2171,-2.3177 5.4219,-4.9524 1.3007,-2.84441 0,-8.0476 0,-8.0476 H 6.57808 c 0,0 -1.30068,5.20319 0,8.0476 z"
         stroke="#000000"
         stroke-width="1.5"
         stroke-linecap="round"
         stroke-linejoin="round"
         id="path14384" /></g><g
       style="color:#000000;display:inline;fill:none;stroke-width:1.5"
       id="g14423"
       transform="matrix(-1.1627446,0.21550197,-0.21550197,-1.1627446,107.06707,212.16513)"
       inkscape:label="спеть песню"><path
         d="M 20.8,8.1 C 20.8,8.59706 20.3971,9 19.9,9 19.4029,9 19,8.59706 19,8.1 c 0,-0.49706 0.4029,-0.9 0.9,-0.9 0.4971,0 0.9,0.40294 0.9,0.9 z"
         fill="#000000"
         id="path14399" /><path
         d="M 20.8,8.1 C 20.8,8.59706 20.3971,9 19.9,9 19.4029,9 19,8.59706 19,8.1 c 0,-0.49706 0.4029,-0.9 0.9,-0.9 0.4971,0 0.9,0.40294 0.9,0.9 z m 0,0 V 3.6 C 20.8,3.26863 21.0686,3 21.4,3 H 23"
         stroke="#000000"
         stroke-width="1.5"
         stroke-linecap="round"
         id="path14401" /><path
         d="m 16,17 c -1.1046,0 -2,-0.8954 -2,-2 0,-1.1046 0.8954,-2 2,-2 1.1046,0 2,0.8954 2,2 0,1.1046 -0.8954,2 -2,2 z"
         stroke="#000000"
         stroke-width="1.5"
         stroke-linecap="round"
         stroke-linejoin="round"
         id="path14403" /><path
         d="M 21.9506,13 C 21.4489,18.0533 17.1853,22 12,22 6.47715,22 2,17.5228 2,12 2,6.47715 6.47715,2 12,2 c 1.4222,0 2.7751,0.2969 4,0.83209"
         stroke="#000000"
         stroke-width="1.5"
         stroke-linecap="round"
         stroke-linejoin="round"
         id="path14405" /><path
         d="M 8.5,9 C 8.22386,9 8,8.77614 8,8.5 8,8.22386 8.22386,8 8.5,8 8.77614,8 9,8.22386 9,8.5 9,8.77614 8.77614,9 8.5,9 Z"
         fill="#000000"
         stroke="#000000"
         stroke-width="1.5"
         stroke-linecap="round"
         stroke-linejoin="round"
         id="path14407" /><path
         d="M 15.5,9 C 15.2239,9 15,8.77614 15,8.5 15,8.22386 15.2239,8 15.5,8 15.7761,8 16,8.22386 16,8.5 16,8.77614 15.7761,9 15.5,9 Z"
         fill="#000000"
         stroke="#000000"
         stroke-width="1.5"
         stroke-linecap="round"
         stroke-linejoin="round"
         id="path14409" /></g><g
       style="color:#000000;display:inline;fill:none;stroke-width:1.5"
       id="g14556"
       transform="matrix(0.95720859,-0.81753335,0.81753335,0.95720859,45.125923,57.569466)"
       inkscape:label="Размяться"><path
         d="m 16,7 c 1.1046,0 2,-0.89543 2,-2 0,-1.10457 -0.8954,-2 -2,-2 -1.1046,0 -2,0.89543 -2,2 0,1.10457 0.8954,2 2,2 z"
         stroke="#000000"
         stroke-width="1.5"
         stroke-linecap="round"
         stroke-linejoin="round"
         id="path14541" /><path
         d="M 5,20 9.90909,19.4762 12.6364,14.2381 13.7273,9 8.81818,10.0476 10.4545,12.1429"
         stroke="#000000"
         stroke-width="1.5"
         stroke-linecap="round"
         stroke-linejoin="round"
         id="path14543" /><path
         d="m 14.8181,15.2857 h 2.1818 V 20"
         stroke="#000000"
         stroke-width="1.5"
         stroke-linecap="round"
         stroke-linejoin="round"
         id="path14545" /></g><g
       style="color:#000000;fill:none;stroke-width:1.5"
       id="g14584"
       transform="matrix(-0.63230689,0.9200123,-0.9200123,-0.63230689,189.20015,81.114479)"
       inkscape:label="Бенгальские  огни"><path
         d="m 8,15 c 4.8747,0 7,-2.051 7,-7 0,4.949 2.1104,7 7,7 -4.8896,0 -7,2.1104 -7,7 0,-4.8896 -2.1253,-7 -7,-7 z"
         stroke="#000000"
         stroke-width="1.5"
         stroke-linejoin="round"
         id="path14572" /><path
         d="M 2,6.5 C 5.13376,6.5 6.5,5.18153 6.5,2 6.5,5.18153 7.85669,6.5 11,6.5 7.85669,6.5 6.5,7.85669 6.5,11 6.5,7.85669 5.13376,6.5 2,6.5 Z"
         stroke="#000000"
         stroke-width="1.5"
         stroke-linejoin="round"
         id="path14574" /></g><g
       id="g14625"
       style="display:inline"
       inkscape:label="веселая истоия"
       transform="matrix(0.60466062,0.25045863,-0.25045863,0.60466062,-49.45716,-5.2640278)"><g
         style="color:#000000;fill:none;stroke-width:1.5"
         id="g14539"
         transform="matrix(0.16804372,-0.79058351,0.79058351,0.16804372,161.32457,108.54603)"><path
           d="M 10,9 H 8 m 8,0 H 14 M 2,12 C 2,17.5228 6.47715,22 12,22 17.5228,22 22,17.5228 22,12 22,6.47715 17.5228,2 12,2 6.47715,2 2,6.47715 2,12 Z"
           stroke="#000000"
           stroke-width="1.5"
           stroke-linecap="round"
           stroke-linejoin="round"
           id="path14527" /><path
           d="m 16.5,14.5 c 0,0 -1.5,2 -4.5,2 -3,0 -4.5,-2 -4.5,-2"
           stroke="#000000"
           stroke-width="1.5"
           stroke-linecap="round"
           stroke-linejoin="round"
           id="path14529" /></g><g
         style="color:#000000;fill:none;stroke-width:1.5"
         id="g14570"
         transform="matrix(0.45929974,-2.1608353,2.1608353,0.45929974,146.79915,130.39816)"><path
           d="M 7.5,22 C 10.5376,22 13,19.5376 13,16.5 13,13.4624 10.5376,11 7.5,11 4.46243,11 2,13.4624 2,16.5 c 0,1.0018 0.26783,1.941 0.7358,2.75 L 2.275,21.725 4.75,21.2642 C 5.55898,21.7322 6.49821,22 7.5,22 Z"
           stroke="#000000"
           stroke-width="1.5"
           stroke-linecap="round"
           stroke-linejoin="round"
           id="path14558" /><path
           d="M 15.2824,17.8978 C 16.2587,17.7405 17.1758,17.4065 18,16.9297 L 21.6,17.6 20.9297,14 C 21.6104,12.8233 22,11.4571 22,10 22,5.58172 18.4183,2 14,2 9.97262,2 6.64032,4.97598 6.08221,8.84884"
           stroke="#000000"
           stroke-width="1.5"
           stroke-linecap="round"
           stroke-linejoin="round"
           id="path14560" /></g><g
         style="color:#000000;fill:none;stroke-width:1.5"
         id="g14610"
         transform="matrix(0.10039145,-0.47230461,0.47230461,0.10039145,179.61792,125.92975)"><path
           d="m 16,17 c -1.1046,0 -2,-0.8954 -2,-2 0,-1.1046 0.8954,-2 2,-2 1.1046,0 2,0.8954 2,2 0,1.1046 -0.8954,2 -2,2 z"
           stroke="#000000"
           stroke-width="1.5"
           stroke-linecap="round"
           stroke-linejoin="round"
           id="path14586" /><path
           d="M 12,22 C 17.5228,22 22,17.5228 22,12 22,6.47715 17.5228,2 12,2 6.47715,2 2,6.47715 2,12 2,17.5228 6.47715,22 12,22 Z"
           stroke="#000000"
           stroke-width="1.5"
           stroke-linecap="round"
           stroke-linejoin="round"
           id="path14588" /><path
           d="M 8.5,9 C 8.22386,9 8,8.77614 8,8.5 8,8.22386 8.22386,8 8.5,8 8.77614,8 9,8.22386 9,8.5 9,8.77614 8.77614,9 8.5,9 Z"
           fill="#000000"
           stroke="#000000"
           stroke-width="1.5"
           stroke-linecap="round"
           stroke-linejoin="round"
           id="path14590" /><path
           d="M 15.5,9 C 15.2239,9 15,8.77614 15,8.5 15,8.22386 15.2239,8 15.5,8 15.7761,8 16,8.22386 16,8.5 16,8.77614 15.7761,9 15.5,9 Z"
           fill="#000000"
           stroke="#000000"
           stroke-width="1.5"
           stroke-linecap="round"
           stroke-linejoin="round"
           id="path14592" /><path
           d="M 8.5,9 C 8.22386,9 8,8.77614 8,8.5 8,8.22386 8.22386,8 8.5,8 8.77614,8 9,8.22386 9,8.5 9,8.77614 8.77614,9 8.5,9 Z"
           fill="#000000"
           stroke="#000000"
           stroke-width="1.5"
           stroke-linecap="round"
           stroke-linejoin="round"
           id="path14594" /><path
           d="M 15.5,9 C 15.2239,9 15,8.77614 15,8.5 15,8.22386 15.2239,8 15.5,8 15.7761,8 16,8.22386 16,8.5 16,8.77614 15.7761,9 15.5,9 Z"
           fill="#000000"
           stroke="#000000"
           stroke-width="1.5"
           stroke-linecap="round"
           stroke-linejoin="round"
           id="path14596" /></g></g><g
       style="color:#000000;fill:none;stroke-width:1.5"
       id="g14639"
       transform="matrix(1.116816,0.08789537,-0.08789537,1.116816,108.724,34.608405)"><path
         d="M 2,19 V 9 C 2,7.89543 2.89543,7 4,7 H 4.5 C 5.12951,7 5.72229,6.70361 6.1,6.2 L 8.32,3.24 C 8.43331,3.08892 8.61115,3 8.8,3 h 6.4 c 0.1889,0 0.3667,0.08892 0.48,0.24 L 17.9,6.2 C 18.2777,6.70361 18.8705,7 19.5,7 H 20 c 1.1046,0 2,0.89543 2,2 v 10 c 0,1.1046 -0.8954,2 -2,2 H 4 C 2.89543,21 2,20.1046 2,19 Z"
         stroke="#000000"
         stroke-width="1.5"
         stroke-linecap="round"
         stroke-linejoin="round"
         id="path14627" /><path
         d="m 12,17 c 2.2091,0 4,-1.7909 4,-4 0,-2.2091 -1.7909,-4 -4,-4 -2.20914,0 -4,1.7909 -4,4 0,2.2091 1.79086,4 4,4 z"
         stroke="#000000"
         stroke-width="1.5"
         stroke-linecap="round"
         stroke-linejoin="round"
         id="path14629" /></g><g
       style="color:#000000;fill:none;stroke-width:1.5"
       id="g14662"
       transform="matrix(-0.4593119,-0.96296749,0.96296749,-0.4593119,33.217713,181.7729)"
       inkscape:label="Подарок"><path
         d="m 20,12 v 9.4 C 20,21.7314 19.7314,22 19.4,22 H 4.6 C 4.26863,22 4,21.7314 4,21.4 V 12"
         stroke="#000000"
         stroke-width="1.5"
         stroke-linecap="round"
         stroke-linejoin="round"
         id="path14641" /><path
         d="M 21.4,7 H 2.6 C 2.26863,7 2,7.26863 2,7.6 v 3.8 C 2,11.7314 2.26863,12 2.6,12 H 21.4 C 21.7314,12 22,11.7314 22,11.4 V 7.6 C 22,7.26863 21.7314,7 21.4,7 Z"
         stroke="#000000"
         stroke-width="1.5"
         stroke-linecap="round"
         stroke-linejoin="round"
         id="path14643" /><path
         d="M 12,22 V 7"
         stroke="#000000"
         stroke-width="1.5"
         stroke-linecap="round"
         stroke-linejoin="round"
         id="path14645" /><path
         d="M 12,7 H 7.5 C 6.83696,7 6.20107,6.73661 5.73223,6.26777 5.26339,5.79893 5,5.16304 5,4.5 5,3.83696 5.26339,3.20107 5.73223,2.73223 6.20107,2.26339 6.83696,2 7.5,2 11,2 12,7 12,7 Z"
         stroke="#000000"
         stroke-width="1.5"
         stroke-linecap="round"
         stroke-linejoin="round"
         id="path14647" /><path
         d="m 12,7 h 4.5 C 17.163,7 17.7989,6.73661 18.2678,6.26777 18.7366,5.79893 19,5.16304 19,4.5 19,3.83696 18.7366,3.20107 18.2678,2.73223 17.7989,2.26339 17.163,2 16.5,2 13,2 12,7 12,7 Z"
         stroke="#000000"
         stroke-width="1.5"
         stroke-linecap="round"
         stroke-linejoin="round"
         id="path14649" /></g></g></svg>
